<svg width="18" height="9" viewBox="0 0 18 9" fill="none" xmlns="http://www.w3.org/2000/svg">
<path d="M0.330469 0.909975C0.330469 0.719975 0.400469 0.529976 0.550468 0.379976C0.840469 0.0899758 1.32047 0.0899758 1.61047 0.379976L8.13047 6.89998C8.61047 7.37998 9.39047 7.37998 9.87047 6.89998L16.3905 0.379976C16.6805 0.0899756 17.1605 0.0899756 17.4505 0.379976C17.7405 0.669976 17.7405 1.14998 17.4505 1.43998L10.9305 7.95998C10.4205 8.46998 9.73047 8.75998 9.00047 8.75998C8.27047 8.75998 7.58047 8.47998 7.07047 7.95998L0.550468 1.43998C0.410469 1.28998 0.330469 1.09998 0.330469 0.909975Z" fill="#161616"/>
</svg>
