<svg width="32" height="32" viewBox="0 0 32 32" fill="none" xmlns="http://www.w3.org/2000/svg">
<path d="M16.0001 30.3334C8.09342 30.3334 1.66675 23.9067 1.66675 16.0001C1.66675 8.09342 8.09342 1.66675 16.0001 1.66675C23.9067 1.66675 30.3334 8.09342 30.3334 16.0001C30.3334 23.9067 23.9067 30.3334 16.0001 30.3334ZM16.0001 3.66675C9.20008 3.66675 3.66675 9.20008 3.66675 16.0001C3.66675 22.8001 9.20008 28.3334 16.0001 28.3334C22.8001 28.3334 28.3334 22.8001 28.3334 16.0001C28.3334 9.20008 22.8001 3.66675 16.0001 3.66675Z" fill="currentColor"/>
<path d="M12.2266 20.7733C11.9733 20.7733 11.72 20.68 11.52 20.48C11.1333 20.0933 11.1333 19.4533 11.52 19.0666L19.0666 11.52C19.4533 11.1333 20.0933 11.1333 20.48 11.52C20.8666 11.9066 20.8666 12.5466 20.48 12.9333L12.9333 20.48C12.7466 20.68 12.48 20.7733 12.2266 20.7733Z" fill="currentColor"/>
<path d="M19.7733 20.7733C19.52 20.7733 19.2666 20.68 19.0666 20.48L11.52 12.9333C11.1333 12.5466 11.1333 11.9066 11.52 11.52C11.9066 11.1333 12.5466 11.1333 12.9333 11.52L20.48 19.0666C20.8666 19.4533 20.8666 20.0933 20.48 20.48C20.28 20.68 20.0266 20.7733 19.7733 20.7733Z" fill="currentColor"/>
</svg>
